
<svg xmlns="http://www.w3.org/2000/svg" viewBox="0 0 598.1 598.04"><defs><style>.cls-1{fill:#fff;}</style></defs><title>Asset 1</title><g id="Layer_2" data-name="Layer 2"><g id="Layer_1-2" data-name="Layer 1"><path class="cls-1" d="M598.1,598H.05V0h598Zm-.78-.7V.81H.78V597.34Z"/><path d="M596.53,597.29H0V.75H596.53ZM225.39,497.66c-.84-2.6-2.18-4.91-2.24-7.25-.2-8.43-.08-16.87.16-25.3a16.57,16.57,0,0,1,1.59-7.2c2.81-5.2,2.58-10.12.31-15.38a43.63,43.63,0,0,1-3.27-10.47c-1.21-7.94-1.91-16-2.83-23.94-.78-6.78-1.45-13.49.08-20.33.64-2.88-.35-6.1-.39-9.17a22.9,22.9,0,0,1,.65-4.77c.56-2.77,1.61-5.49,1.77-8.27.67-11.69,1-23.4,1.61-35.1.49-10,1.27-20,1.59-30,.2-6.4-2.25-11.92-6.51-16.81-2.71-3.11-6.15-2.76-9.51-3.12-7.48-.81-15-1.55-22.46-2.3-3.71-.37-7.65-.07-11.09-1.25a14.88,14.88,0,0,0-11.48.71,29.14,29.14,0,0,1-18.3,2.17c-7.91-1.68-11-4.89-10.21-11.79-6.17.26-9.52-3.39-11.61-8.69a6.12,6.12,0,0,0-1.2-1.7c-2.76-3.11-2.68-6.24-.76-9.86.93-1.76.81-4.09,1.1-6.18.32-2.33-.11-5,.94-7,3.9-7.11,10.6-11.86,15.93-17.78a10.51,10.51,0,0,1,1.77-1.09c9.88-7.12,21.18-11.21,32.43-15.45a133.13,133.13,0,0,0,12.84-5.48c3.86-1.94,7.44-4.44,11.19-6.59,3.59-2.06,7.17-4.18,10.92-5.93,4.39-2.05,9.08-3.47,13.42-5.63,6.66-3.31,6.63-3.71,2.35-9.55-.59-.8-1.09-1.67-1.74-2.42-1.69-1.94-3.38-3.88-5.18-5.71-1.28-1.31-3.06-2.22-4.07-3.69-3.61-5.27-6.95-10.73-10.48-16.06a74.37,74.37,0,0,0-6.39-8.91c-3.18-3.53-5.34-7.3-5.34-12.14,0-1.76-.42-3.81,2-4.37,2.09-.49,3.64.1,4.93,2.21,2.06,3.37,4.21,6.9,7.09,9.51,5.91,5.36,12.32,10.17,18.57,15.16a26.18,26.18,0,0,0,3.17,1.89l.56-.71a30.8,30.8,0,0,0-1.75-2.63c-2.51-3.08-5-6.16-7.63-9.16-3-3.48-3.91-7.9-2-11.26.38-.66,1.27-1.52,1.88-1.49,4.91.26,9.94.08,13.75,4.26,2.2,2.41,4.53,4.94,7.31,6.51,4,2.27,6.58,5.49,8.77,9.36a19.51,19.51,0,0,0,4.49,5.26c2,1.69,4.84,2.55,6.69,4.39,5.45,5.43,10.61,11.14,15.84,16.79,2.48,2.68,4.79,5.5,7.27,8.17,1.25,1.34,3.15,2.23,4,3.74a117.91,117.91,0,0,1,5.36,11.2c1.3,3,2,6.32,3.6,9.13,1.73,3,3.68,6.52,6.49,8.12,4.41,2.51,7.14,5.65,7.78,10.48.76,5.78,2.45,11.21,6.52,15.41,6.89,7.13,10,16.41,14.48,24.86,4.6,8.65,8.36,17.74,12.39,26.69,1.17,2.6,2.53,5.3,2.82,8.06,1,9.48,1.47,19,2.34,28.5a42.45,42.45,0,0,1-1.33,14.44,19,19,0,0,0-.64,7.08c1.37,9.71.81,19.52,2.4,29.29,1.44,8.9,5.86,16.18,9.64,23.8,2.82,5.68,7.25,10.56,11,15.78,2.67,3.73,6.67,3.92,9.75.54a25.28,25.28,0,0,1,2-1.73c4.34-3.84,10.65-4.07,14.89-8.31a9.17,9.17,0,0,1,6.27-2.3c1.39.06,2.64,2.41,4,3.64,4.72,4.17,8.32,3.86,12.54-.73.78-.85,2.38-1,3.65-1.32,5.67-1.25,11.35-2.44,17-3.63,3.08-.65,6-1.63,9.23.12,3.41,1.87,6.93.65,9.34-2.7a2.58,2.58,0,0,1,1.11-.89,36.76,36.76,0,0,1,17.8-2.17c4.27.57,7.2-.56,9.61-4.07a4.43,4.43,0,0,1,2.24-1.81,75.91,75.91,0,0,1,9.76-1.87c6.2-.65,12.18.61,18.12,2.38a14.94,14.94,0,0,0,7.14.69c3.5-.78,6.73-2.7,10.19-3.73,2.39-.7,3.2-1.71,3.2-4.28q-.11-156.39-.06-312.78V60.49H60v477H234.73c-1.62-4.18-3-8.24-4.75-12.1-1.58-3.41-.83-6.31.85-9.3a26.5,26.5,0,0,0,1.28-3.09l-.86-.33L228,518c-.68-3.24-.1-5.9-1.3-8.42-1.34-2.79.09-5.56.87-8.31C228.15,499.33,228.84,497,225.39,497.66Zm10.21,39.67,1.19.84c1.29-.53,3.43-.79,3.71-1.65a30.43,30.43,0,0,0,1.12-7.81c0-.59-1-1.64-1.71-1.75s-2.13.49-2.28,1C236.79,531.07,236.24,534.21,235.6,537.33Z"/><path class="cls-1" d="M236.38,537.38c.65-3.12,1.19-6.26,2-9.32.15-.55,1.56-1.15,2.28-1s1.74,1.16,1.71,1.75a30.43,30.43,0,0,1-1.12,7.81c-.28.86-2.42,1.12-3.71,1.65Z"/></g></g></svg>
